{
  "episode_id": "PD-2026-008-carpenter",
  "render": "artifact://episodes/PD-2026-008-carpenter/08_edit/carpenter_review_v001.mp4",
  "media_render": "H:\\pd-media\\episodes\\PD-2026-008-carpenter\\08_edit\\carpenter_review_v001.mp4",
  "sha256": "4336316404118b944adccc52cd10cfa06c64c1c88864875c94070d26582fbc79",
  "duration_seconds": 678.0,
  "target_duration_seconds": 678.0,
  "video": "Remotion CarpenterPremium, synthetic-symbolic visuals, 1920x1080 H.264",
  "audio": "ElevenLabs narration slowed to ~669s, library music, ambience, SFX",
  "captions": "burned SRT from locked script text, scaled to slowed narration",
  "paid_generation_performed": true,
  "estimated_elevenlabs_cost_usd": 2.82,
  "external_upload_performed": false,
  "publish_performed": false,
  "synthetic_content_disclosure_required": true,
  "accuracy_checks": {
    "vote_5_4": true,
    "no_incorrect_vote_count": true,
    "points_12898": true,
    "symbolic_reconstruction_label": true
  },
  "audio_probe_tail": "0:02:19.30 bitrate=N/A speed=  90x elapsed=0:00:01.54    \nframe= 5437 fps=2628 q=-0.0 size=N/A time=00:03:01.23 bitrate=N/A speed=87.6x elapsed=0:00:02.06    \nframe= 7182 fps=2778 q=-0.0 size=N/A time=00:03:59.40 bitrate=N/A speed=92.6x elapsed=0:00:02.58    \nframe= 8593 fps=2771 q=-0.0 size=N/A time=00:04:46.43 bitrate=N/A speed=92.4x elapsed=0:00:03.10    \nframe= 9834 fps=2720 q=-0.0 size=N/A time=00:05:27.80 bitrate=N/A speed=90.7x elapsed=0:00:03.61    \nframe=11287 fps=2733 q=-0.0 size=N/A time=00:06:16.23 bitrate=N/A speed=91.1x elapsed=0:00:04.13    \nframe=12987 fps=2794 q=-0.0 size=N/A time=00:07:12.90 bitrate=N/A speed=93.1x elapsed=0:00:04.64    \nframe=14631 fps=2833 q=-0.0 size=N/A time=00:08:07.70 bitrate=N/A speed=94.4x elapsed=0:00:05.16    \nframe=16271 fps=2866 q=-0.0 size=N/A time=00:09:02.36 bitrate=N/A speed=95.5x elapsed=0:00:05.67    \nframe=17925 fps=2894 q=-0.0 size=N/A time=00:09:57.50 bitrate=N/A speed=96.5x elapsed=0:00:06.19    \nframe=19545 fps=2914 q=-0.0 size=N/A time=00:10:51.50 bitrate=N/A speed=97.1x elapsed=0:00:06.70    \n[Parsed_volumedetect_0 @ 0000025540c60640] n_samples: 29900800\n[Parsed_volumedetect_0 @ 0000025540c60640] mean_volume: -22.4 dB\n[Parsed_volumedetect_0 @ 0000025540c60640] max_volume: -2.0 dB\n[Parsed_volumedetect_0 @ 0000025540c60640] histogram_2db: 22\n[Parsed_volumedetect_0 @ 0000025540c60640] histogram_3db: 71\n[Parsed_volumedetect_0 @ 0000025540c60640] histogram_4db: 271\n[Parsed_volumedetect_0 @ 0000025540c60640] histogram_5db: 896\n[Parsed_volumedetect_0 @ 0000025540c60640] histogram_6db: 2904\n[Parsed_volumedetect_0 @ 0000025540c60640] histogram_7db: 7132\n[Parsed_volumedetect_0 @ 0000025540c60640] histogram_8db: 16948\n[Parsed_volumedetect_0 @ 0000025540c60640] histogram_9db: 36910\n[out#0/null @ 000002553e7e0300] video:8422KiB audio:58400KiB subtitle:0KiB other streams:0KiB global headers:0KiB muxing overhead: unknown\nframe=20340 fps=2922 q=-0.0 Lsize=N/A time=00:11:18.00 bitrate=N/A speed=97.4x elapsed=0:00:06.96    \n",
  "known_limitations": [
    "Captions are chunk-time scaled, not forced word-aligned."
  ]
}
